HIERARCHY
ROOT hip
{
  OFFSET 0 0 0
  CHANNELS 6 Xposition Yposition Zposition Zrotation Yrotation Xrotation
  JOINT abdomen
  {
    OFFSET 0 20.6881 -0.73152
    CHANNELS 3 Zrotation Xrotation Yrotation
    JOINT chest
    {
      OFFSET 0 11.7043 -0.48768
      CHANNELS 3 Zrotation Xrotation Yrotation
      JOINT neck
      {
        OFFSET 0 22.1894 -2.19456
        CHANNELS 3 Zrotation Xrotation Yrotation
        JOINT head
        {
          OFFSET -0.24384 7.07133 1.2192
          CHANNELS 3 Zrotation Xrotation Yrotation
          JOINT leftEye
          {
            OFFSET 4.14528 8.04674 8.04672
            CHANNELS 3 Zrotation Xrotation Yrotation
            End Site
            {
              OFFSET 1 0 0
            }
          }
          JOINT rightEye
          {
            OFFSET -3.6576 8.04674 8.04672
            CHANNELS 3 Zrotation Xrotation Yrotation
            End Site
            {
              OFFSET 1 0 0
            }
          }
        }
      }
      JOINT rCollar
      {
        OFFSET -2.68224 19.2634 -4.8768
        CHANNELS 3 Zrotation Xrotation Yrotation
        JOINT rShldr
        {
          OFFSET -8.77824 -1.95073 1.46304
          CHANNELS 3 Zrotation Xrotation Yrotation
          JOINT rForeArm
          {
            OFFSET -28.1742 -1.7115 0.48768
            CHANNELS 3 Zrotation Xrotation Yrotation
            JOINT rHand
            {
              OFFSET -22.5879 0.773209 7.07136
              CHANNELS 3 Zrotation Xrotation Yrotation
              JOINT rThumb1
              {
                OFFSET -1.2192 -0.487915 3.41376
                CHANNELS 3 Zrotation Xrotation Yrotation
                JOINT rThumb2
                {
                  OFFSET -3.37035 -0.52449 3.41376
                  CHANNELS 3 Zrotation Xrotation Yrotation
                  End Site
                  {
                    OFFSET -1.78271 -1.18214 1.43049
                  }
                }
              }
              JOINT rIndex1
              {
                OFFSET -7.75947 0.938293 5.60832
                CHANNELS 3 Zrotation Xrotation Yrotation
                JOINT rIndex2
                {
                  OFFSET -2.54057 -0.884171 1.56538
                  CHANNELS 3 Zrotation Xrotation Yrotation
                  End Site
                  {
                    OFFSET -1.62519 -0.234802 1.16502
                  }
                }
              }
              JOINT rMid1
              {
                OFFSET -8.24714 1.18213 3.41376
                CHANNELS 3 Zrotation Xrotation Yrotation
                JOINT rMid2
                {
                  OFFSET -3.10165 -0.590103 1.0647
                  CHANNELS 3 Zrotation Xrotation Yrotation
                  End Site
                  {
                    OFFSET -2.48547 -0.328903 0.83742
                  }
                }
              }
              JOINT rRing1
              {
                OFFSET -8.82822 0.546677 1.51678
                CHANNELS 3 Zrotation Xrotation Yrotation
                JOINT rRing2
                {
                  OFFSET -2.60934 -0.819778 -0.0198488
                  CHANNELS 3 Zrotation Xrotation Yrotation
                  End Site
                  {
                    OFFSET -2.33842 -0.294052 0.168128
                  }
                }
              }
              JOINT rPinky1
              {
                OFFSET -8.27202 -0.0477905 -0.4584
                CHANNELS 3 Zrotation Xrotation Yrotation
                JOINT rPinky2
                {
                  OFFSET -1.82734 -0.647385 -0.700984
                  CHANNELS 3 Zrotation Xrotation Yrotation
                  End Site
                  {
                    OFFSET -1.69225 -0.51767 -0.607171
                  }
                }
              }
            }
          }
        }
      }
      JOINT lCollar
      {
        OFFSET 2.68224 19.2634 -4.8768
        CHANNELS 3 Zrotation Xrotation Yrotation
        JOINT lShldr
        {
          OFFSET 8.77824 -1.95073 1.46304
          CHANNELS 3 Zrotation Xrotation Yrotation
          JOINT lForeArm
          {
            OFFSET 28.1742 -1.7115 0.48768
            CHANNELS 3 Zrotation Xrotation Yrotation
            JOINT lHand
            {
              OFFSET 22.5879 0.773209 7.07136
              CHANNELS 3 Zrotation Xrotation Yrotation
              JOINT lThumb1
              {
                OFFSET 1.2192 -0.487915 3.41376
                CHANNELS 3 Zrotation Xrotation Yrotation
                JOINT lThumb2
                {
                  OFFSET 3.37035 -0.52449 3.41376
                  CHANNELS 3 Zrotation Xrotation Yrotation
                  End Site
                  {
                    OFFSET 1.78271 -1.18214 1.43049
                  }
                }
              }
              JOINT lIndex1
              {
                OFFSET 7.75947 0.938293 5.60832
                CHANNELS 3 Zrotation Xrotation Yrotation
                JOINT lIndex2
                {
                  OFFSET 2.54057 -0.884171 1.56538
                  CHANNELS 3 Zrotation Xrotation Yrotation
                  End Site
                  {
                    OFFSET 1.62519 -0.234802 1.16502
                  }
                }
              }
              JOINT lMid1
              {
                OFFSET 8.24714 1.18213 3.41376
                CHANNELS 3 Zrotation Xrotation Yrotation
                JOINT lMid2
                {
                  OFFSET 3.10165 -0.590103 1.0647
                  CHANNELS 3 Zrotation Xrotation Yrotation
                  End Site
                  {
                    OFFSET 2.48547 -0.328903 0.83742
                  }
                }
              }
              JOINT lRing1
              {
                OFFSET 8.82822 0.546677 1.51678
                CHANNELS 3 Zrotation Xrotation Yrotation
                JOINT lRing2
                {
                  OFFSET 2.60934 -0.819778 -0.0198488
                  CHANNELS 3 Zrotation Xrotation Yrotation
                  End Site
                  {
                    OFFSET 2.33842 -0.294052 0.168128
                  }
                }
              }
              JOINT lPinky1
              {
                OFFSET 8.27202 -0.0477905 -0.4584
                CHANNELS 3 Zrotation Xrotation Yrotation
                JOINT lPinky2
                {
                  OFFSET 1.82734 -0.647385 -0.700984
                  CHANNELS 3 Zrotation Xrotation Yrotation
                  End Site
                  {
                    OFFSET 1.69225 -0.51767 -0.607171
                  }
                }
              }
            }
          }
        }
      }
    }
  }
  JOINT rButtock
  {
    OFFSET -8.77824 4.35084 1.2192
    CHANNELS 3 Zrotation Xrotation Yrotation
    JOINT rThigh
    {
      OFFSET 0 -1.70687 -2.19456
      CHANNELS 3 Zrotation Xrotation Yrotation
      JOINT rShin
      {
        OFFSET 0 -36.8199 0.73152
        CHANNELS 3 Zrotation Xrotation Yrotation
        JOINT rFoot
        {
          OFFSET 0.73152 -45.1104 -5.12064
          CHANNELS 3 Zrotation Xrotation Yrotation
          End Site
          {
            OFFSET -1.1221 -3.69964 12.103
          }
        }
      }
    }
  }
  JOINT lButtock
  {
    OFFSET 8.77824 4.35084 1.2192
    CHANNELS 3 Zrotation Xrotation Yrotation
    JOINT lThigh
    {
      OFFSET 0 -1.70687 -2.19456
      CHANNELS 3 Zrotation Xrotation Yrotation
      JOINT lShin
      {
        OFFSET 0 -36.8199 0.73152
        CHANNELS 3 Zrotation Xrotation Yrotation
        JOINT lFoot
        {
          OFFSET -0.73152 -45.1104 -5.12064
          CHANNELS 3 Zrotation Xrotation Yrotation
          End Site
          {
            OFFSET 1.1221 -3.69964 12.103
          }
        }
      }
    }
  }
}
MOTION
Frames:	7
Frame Time:	0.00833333
0.0 0.0 0.0 0.0 0.0 0.0 0.0 0.0 0.0 0.0 0.0 0.0 0.0 0.0 0.0 0.0 0.0 0.0 0.0 0.0 0.0 0.0 0.0 0.0 0.0 0.0 0.0 0.0 0.0 0.0 0.0 0.0 0.0 0.0 0.0 0.0 0.0 0.0 0.0 0.0 0.0 0.0 0.0 0.0 0.0 0.0 0.0 0.0 0.0 0.0 0.0 0.0 0.0 0.0 0.0 0.0 0.0 0.0 0.0 0.0 0.0 0.0 0.0 0.0 0.0 0.0 0.0 0.0 0.0 0.0 0.0 0.0 0.0 0.0 0.0 0.0 0.0 0.0 0.0 0.0 0.0 0.0 0.0 0.0 0.0 0.0 0.0 0.0 0.0 0.0 0.0 0.0 0.0 0.0 0.0 0.0 0.0 0.0 0.0 0.0 0.0 0.0 0.0 0.0 0.0 0.0 0.0 0.0 0.0 0.0 0.0 0.0 0.0 0.0 0.0 0.0 0.0 0.0 0.0 0.0 0.0 0.0 0.0 0.0 0.0 0.0 0.0 0.0 0.0 0.0 0.0 0.0
0.0332 61.9131 -0.0561 -179.535387 -77.265594 178.58918 -0.0723 3.896872 6.360307 0.67384 7.929892 -5.637598 8.887671 -16.518196 66.100568 -38.813107 35.867834 -116.794882 -49.152688 23.263748 -48.465688 171.990828 1.744773 -24.542401 -85.269544 -34.120147 163.496591 6.721148 -3.968542 8.634393 -174.77333 -52.029758 -21.217841 0.918677 17.300481 -69.370139 159.338612 -2.010533 49.11021 -177.340316 43.22054 -63.701081 -31.242542 24.966745 -108.078937 10.893835 35.446187 157.876284 141.517224 10.757871 -108.962625 5.132055 -17.086306 14.380419 93.892185 17.600319 -79.167814 6.674364 39.658288 -1.392234 65.124485 13.539845 -62.069382 10.550393 37.447488 7.133187 83.304302 -33.894549 -166.01239 162.329942 16.126816 -168.998678 172.863353 46.391677 16.689108 -174.237441 20.168478 -109.292139 167.86748 7.964332 -72.033906 -8.641564 -22.371271 0.979285 -27.099521 -42.001754 -33.225543 11.409109 39.580736 -11.832009 7.32176 -2.228535 -5.619733 179.196958 21.128894 -115.967104 85.302796 45.756174 96.83584 155.690135 -35.675578 173.278165 152.600773 40.60425 47.687227 143.735543 6.270192 142.158263 4.478548 -49.250142 5.624271 0.259691 49.056224 -179.866944 -4.170339 3.20111 -129.629557 -5.828071 -66.665208 -179.676164 -49.714916 9.23523 -95.456938 2.274126 49.128937 -177.896808 7.249483 -0.121319 92.41454 74.429443 30.63897 -94.859668
0.1854 62.6162 -1.5532000000000001 -17.777273 -67.723155 19.481071 0.112411 11.556809 179.679383 -0.561622 2.756485 -166.761313 -6.113274 15.620197 -56.877841 32.707932 -5.421759 62.060611 14.559081 0.505614 3.9566 13.662776 0.331985 2.770667 5.083464 4.03425 -2.601125 64.008613 3.226508 34.22776 -21.318686 10.891319 108.364847 -3.009879 -10.547652 -4.240186 -151.221898 28.039319 86.156351 28.461363 -64.84375 34.285163 -153.477363 8.00408 110.695267 8.57819 -33.905735 24.095597 -41.173218 46.546321 18.455449 -161.807794 -11.385753 128.800848 -3.188135 -58.2644 -1.1005 -72.013298 -67.491773 -92.206172 3.38615 7.438472 9.12256 8.368754 -30.448713 -20.553148 161.382746 -43.047273 -168.935272 17.707113 6.457784 59.923711 -115.625207 14.028514 75.767909 88.125306 77.224364 -58.018483 132.909309 24.049203 -70.529713 122.065499 -0.263886 -53.950556 125.684377 24.319908 -77.293497 23.362657 13.198645 -27.38499 166.280689 2.151119 -121.540126 135.862464 8.382392 -98.893173 113.261703 34.739568 -134.854411 137.902909 -30.989859 -171.172978 20.223873 -65.938336 20.645771 7.281291 -24.4505 18.22929 -43.146642 17.665895 -50.566179 60.058738 1.192421 88.014734 60.106396 34.02383 -167.15939 82.202651 47.886377 13.282165 161.955272 70.384298 7.684935 -159.331218 1.432215 89.20823 77.183135 -2.257278 79.240034 102.749193 38.969124 177.549815
-1.1887999999999999 63.712599999999995 -1.6701000000000001 -9.528399 -61.83928 10.556608 -4.512745 16.557892 -167.379866 -3.75643 6.677798 170.631027 -16.105077 21.111714 -71.457616 43.923505 6.907707 66.396532 0.356048 0.076956 24.392401 -18.063517 -4.606433 28.399434 -1.924243 26.83716 5.059586 -104.14441 7.340094 101.058256 178.044257 -40.57002 -75.249635 -0.952415 8.316608 -3.537018 -4.004143 -17.375479 -11.411069 -117.563924 -8.815623 100.467077 -174.197173 -6.901124 125.791353 -130.227299 73.983046 99.630971 -12.282766 -19.666757 -0.590695 -169.683291 -35.508482 162.009035 -22.741241 -74.429241 -20.823678 -142.29839 -65.975629 -152.384733 -1.301123 61.91122 9.867257 -113.830515 66.088383 160.351067 4.806173 28.366081 0.589024 -151.893416 -36.310004 -71.257695 170.883306 82.085037 105.614213 7.50867 14.63205 5.949143 174.286694 10.703472 -92.90447 142.191934 14.909217 -37.225683 143.781633 -25.202155 -137.385161 -165.430992 80.79505 151.147829 -7.003193 -17.655127 -8.851562 172.906801 6.923271 -164.090518 41.266226 38.139525 -34.922714 141.237892 -52.733746 -163.969031 21.159855 -56.58413 0.008646 -52.994458 52.957628 18.105275 -27.568484 8.644096 -13.270501 43.253415 -41.821679 -72.106574 -81.056724 13.815686 -83.42634 148.013858 -7.608708 -144.106845 141.471568 74.434205 28.771509 -161.731887 3.528495 87.214883 69.009889 -3.211981 -62.678885 101.636709 -39.082716 -21.256797
-2.1222000000000003 63.69820000000001 -1.8336999999999999 -8.66526 -56.829974 13.068233 -1.278791 14.256886 -177.372089 -2.68711 7.206315 179.807344 4.662931 16.034093 72.212937 -37.457829 -4.099743 -85.677419 10.109397 0.814274 9.186385 -9.799362 -1.556333 18.006466 -122.452555 58.368589 128.865226 125.916782 1.490237 168.884283 172.658643 -56.429775 21.826106 -172.449418 11.009867 144.405856 -179.296598 -15.741772 93.680749 -30.722817 -48.755862 -22.06521 0.519916 -3.640833 0.272925 -156.233129 0.308125 94.294099 -110.407737 65.18023 95.806888 -149.615251 58.767523 119.745651 -124.38488 1.963221 179.624358 65.501661 31.726336 -9.825833 -148.357148 3.835606 -153.080243 2.536318 -7.653612 -8.234787 1.986474 -36.264928 8.202936 -69.396966 -45.582079 27.386263 107.048179 80.804015 173.034061 10.715356 -4.463542 4.868303 -1.970275 4.313446 6.350297 118.982969 -4.235845 -122.852456 82.037373 63.374277 -79.730171 -176.919268 10.568523 -118.338937 174.081172 -56.080626 -156.472054 163.372161 -36.766208 170.0747 -168.665321 -87.476894 -155.074653 -131.501825 -51.711553 -138.297554 7.239119 -22.224716 -29.409665 136.662882 20.095649 98.442424 12.419275 8.381445 10.290687 -30.622728 -52.694431 -89.16805 -66.663164 45.115976 160.883698 -69.180329 -42.902855 -152.914238 -114.553592 77.878867 -61.871823 175.784059 17.202423 4.347386 10.025117 73.570163 88.242824 -0.342847 -2.459038 -89.803503
-2.7413 63.078199999999995 -2.2451 -6.022611 -53.180314 11.92757 -0.23718 16.805077 -0.481004 1.525895 -11.367126 2.187697 -12.400969 30.423369 -100.366769 47.891692 14.45799 72.605715 51.436236 -28.379287 -55.39459 7.882807 -0.878663 -12.700864 -147.735344 13.885903 153.684074 128.223611 10.506047 -139.878188 -7.76567 47.767763 124.352695 -9.980059 -14.511301 -5.065041 -37.265858 26.214157 10.221038 33.330672 -17.103734 28.314141 -126.642606 -7.184958 114.248995 7.957276 -79.636391 -66.74809 -0.775023 -10.626777 -11.486534 -172.034504 -38.186934 117.427465 45.775827 -7.668877 8.054555 -60.475114 53.449803 12.290299 -20.929126 -49.176324 -2.284231 -11.567131 -20.636153 -64.336426 3.053462 -33.942042 4.114424 -98.3771 12.357515 14.92735 7.587099 33.71301 -76.094211 8.467529 -15.148881 5.884561 19.252181 43.444635 -20.70653 45.268762 23.755828 -30.666465 -5.514313 11.134492 2.149341 1.947328 -23.860834 26.117237 -25.774111 -71.059817 -23.843163 10.792513 -4.187365 50.640553 -16.143987 -1.575048 -1.811551 46.017321 36.947103 1.279512 8.561788 -9.163076 -1.284224 130.529647 82.600906 173.005769 -19.14619 -10.217078 -31.576648 29.570536 -29.754477 76.501512 74.270038 15.051683 21.271098 -101.163077 -30.564829 175.055631 32.958212 31.135097 78.380061 -94.852712 -3.793989 96.605262 74.82125 -49.961186 158.676918 -44.642467 66.56477 132.629568
-3.1593000000000004 60.431999999999995 -2.8756 -1.452764 -47.781734 9.077168 -3.484175 14.038643 -45.73729 8.007189 -2.975656 48.48263 11.73147 32.069916 118.39904 -41.019266 39.852931 -138.008847 163.315305 0.393621 -2.683804 -22.448065 -3.960232 19.766245 -148.659802 9.699933 155.604982 114.504312 20.074811 -121.56912 -4.758628 65.174521 121.648591 -9.848761 -10.485342 -9.775611 -13.197097 3.195152 -3.167528 -5.265251 1.607945 28.72031 -159.93113 -44.686287 112.215616 6.034771 39.023358 16.221799 -168.762839 3.67262 136.93014 4.103961 -58.347432 3.313225 33.306182 -15.244537 9.919969 -31.796389 10.358107 11.350862 -69.476098 -75.767324 -42.622195 21.54914 11.94956 -87.910895 26.026837 47.260855 -21.777299 99.791206 -19.803248 -97.172664 -0.591635 20.80741 94.771109 179.817734 0.228877 -140.031483 -52.600074 -12.426806 7.273166 94.021173 -2.851404 -25.412089 54.362757 27.694727 -46.058178 -61.708891 79.918481 44.805541 161.816241 44.145661 -104.062558 -17.253041 -9.460758 -65.987644 -6.269632 15.511259 -1.187193 22.509538 47.782492 1.586186 104.870698 -53.772349 62.339876 -30.652682 8.256252 49.63291 31.15864 -14.053111 17.23063 -48.901956 -33.323294 112.432956 74.934076 -51.15325 149.030965 143.785813 -70.273477 -115.326104 31.146626 27.907216 71.42794 -89.287552 -10.108881 -176.411514 -81.454838 -35.2515 75.390932 0.463934 -9.517474 41.750759
